# xmcd
#
# Track frame offsets: 
#        150
#        15016
#        32952
#        54183
#        66254
#        87926
#        101977
#        118032
#        142239
#        160910
#
# Disc length: 2621 seconds
#
# Revision: 0
# Processed by: cddbd v1.5.2PL0 Copyright (c) Steve Scherf et al.
# Submitted via: ExactAudioCopyFreeDBPlugin 1.0
#
DISCID=830a3b0a
DTITLE=Brother Dege - How to Kill a Horse [Explicit]
DYEAR=1900
DGENRE=Blues
TTITLE0=The Black Sea
TTITLE1=The Dark Side of Me
TTITLE2=How to Kill a Horse
TTITLE3=Judgment Day
TTITLE4=O'Dark 30
TTITLE5=Poor Momma Child
TTITLE6=Wehyah
TTITLE7=Crazy Motherfucker [Explicit]
TTITLE8=The River
TTITLE9=Last Man Out of Babylon
EXTD=
EXTT0=
EXTT1=
EXTT2=
EXTT3=
EXTT4=
EXTT5=
EXTT6=
EXTT7=
EXTT8=
EXTT9=
PLAYORDER=
